<?xml version="1.0" encoding="utf-8"?>

<!DOCTYPE svg PUBLIC "-//W3C//DTD SVG 1.1//EN" "http://www.w3.org/Graphics/SVG/1.1/DTD/svg11.dtd">
<!-- Uploaded to: SVG Repo, www.svgrepo.com, Generator: SVG Repo Mixer Tools -->
<svg fill="#000000" version="1.1" id="Layer_1" xmlns="http://www.w3.org/2000/svg" xmlns:xlink="http://www.w3.org/1999/xlink" 
	 width="800px" height="800px" viewBox="0 0 100 100" enable-background="new 0 0 100 100" xml:space="preserve">
<g>
	<path d="M53.691,50.609l13.467-13.467c0.781-0.781,0.781-2.047,0-2.828c-0.78-0.781-2.048-0.781-2.828,0L50.863,47.781
		L37.398,34.314c-0.78-0.781-2.047-0.781-2.828,0s-0.781,2.047,0,2.828l13.465,13.467L33.742,64.902
		c-0.781,0.781-0.781,2.047,0,2.828c0.39,0.391,0.902,0.586,1.414,0.586s1.024-0.195,1.414-0.586l14.293-14.293L65.156,67.73
		c0.391,0.391,0.902,0.586,1.414,0.586s1.023-0.195,1.414-0.586c0.781-0.781,0.781-2.047,0-2.828L53.691,50.609z"/>
</g>
</svg>